<svg xmlns="http://www.w3.org/2000/svg" viewBox="0 0 64 80" x="0px" y="0px">
  <g data-name="Layer 68">

    <path d="M60,27a2,2,0,0,0-2,2V58H34v-.5a2,2,0,0,0-4,0V58H6V34h.5a2,2,0,0,0,0-4H6V6H35a2,2,0,0,0,0-4H4A2,2,0,0,0,2,4V60a2,2,0,0,0,2,2H60a2,2,0,0,0,2-2V29A2,2,0,0,0,60,27Z" fill="white" rx="8" ry="8"/>


    <path d="M35.17,12a2,2,0,0,0,2,2h10l-16,16H29.5a2,2,0,0,0,0,4H30v.5a2,2,0,0,0,4,0V32.83l16-16v10a2,2,0,1,0,4,0V12a2,2,0,0,0,0-.39c0-.06,0-.12-.05-.17a2,2,0,0,0-.06-.2,2,2,0,0,0-.1-.2s0-.1-.08-.15a2,2,0,0,0-.55-.55L53,10.25l-.19-.1-.21-.06-.17,0A2,2,0,0,0,52,10H37.17A2,2,0,0,0,35.17,12Z" fill="#0000ff" />

    <path d="M21.587,6.069a.417.417,0,0,1,.381-.269H22.6a.4.4,0,0,0,.4-.4V4.6a.4.4,0,0,0-.4-.4h-.628a.416.416,0,0,1-.381-.27l0-.005a.417.417,0,0,1,.079-.458l.444-.444a.4.4,0,0,0,0-.571l-.56-.561a.4.4,0,0,0-.571,0l-.444.444a.416.416,0,0,1-.458.08l-.006,0a.416.416,0,0,1-.269-.38V1.4a.4.4,0,0,0-.4-.4H18.6a.4.4,0,0,0-.4.4v.628a.415.415,0,0,1-.27.38l0,0a.417.417,0,0,1-.459-.08l-.444-.444a.4.4,0,0,0-.571,0l-.56.561a.4.4,0,0,0,0,.571l.444.444a.415.415,0,0,1,.079.458l0,.005a.415.415,0,0,1-.381.27H15.4a.4.4,0,0,0-.4.4V5.4a.4.4,0,0,0,.4.4h.628a.416.416,0,0,1,.381.269l0,.006a.415.415,0,0,1-.079.458l-.444.444a.4.4,0,0,0,0,.571l.56.561a.4.4,0,0,0,.571,0l.444-.444a.417.417,0,0,1,.459-.08l0,0a.415.415,0,0,1,.27.38V8.6a.4.4,0,0,0,.4.4H19.4a.4.4,0,0,0,.4-.4V7.968a.416.416,0,0,1,.269-.38l.006,0a.416.416,0,0,1,.458.08l.444.444a.4.4,0,0,0,.571,0l.56-.561a.4.4,0,0,0,0-.571l-.444-.444a.417.417,0,0,1-.079-.458ZM19,6.2A1.2,1.2,0,1,1,20.2,5,1.2,1.2,0,0,1,19,6.2Z" fill="white"/>
  </g>
  <text x="0" y="79" fill="#000000" font-size="5px" font-weight="bold" font-family="'Helvetica Neue', Helvetica, Arial-Unicode, Arial, Sans-serif"></text>
  <text x="0" y="84" fill="#000000" font-size="5px" font-weight="bold" font-family="'Helvetica Neue', Helvetica, Arial-Unicode, Arial, Sans-serif"></text>
</svg>
